<svg xmlns="http://www.w3.org/2000/svg" width="248" height="281" viewBox="0 0 248 281">
  <g id="Group_190" data-name="Group 190" transform="translate(5665 -17834)">
    <g id="Group_181" data-name="Group 181" transform="translate(-5650.154 17834.156)">
      <g id="Ellipse_6" data-name="Ellipse 6" transform="translate(0.154 -0.156)" fill="none" stroke="#ce123e" stroke-width="5">
        <circle cx="108.5" cy="108.5" r="108.5" stroke="none"/>
        <circle cx="108.5" cy="108.5" r="106" fill="none"/>
      </g>
      <g id="rice-bowl" transform="translate(38.776 38.601)">
        <g id="Group_123" data-name="Group 123">
          <g id="Group_122" data-name="Group 122">
            <path id="Path_46" data-name="Path 46" d="M6.981,0a6.981,6.981,0,0,0,0,13.962H139.616V0ZM134.963,9.308H6.981a2.327,2.327,0,0,1,0-4.654H134.963Z" fill="#ce123e"/>
          </g>
        </g>
        <g id="Group_125" data-name="Group 125" transform="translate(0 18.616)">
          <g id="Group_124" data-name="Group 124">
            <path id="Path_47" data-name="Path 47" d="M6.981,64a6.981,6.981,0,0,0,0,13.962H139.616V64Zm127.982,9.308H6.981a2.327,2.327,0,0,1,0-4.654H134.963Z" transform="translate(0 -64)" fill="#ce123e"/>
          </g>
        </g>
        <g id="Group_127" data-name="Group 127" transform="translate(13.962 37.231)">
          <g id="Group_126" data-name="Group 126">
            <path id="Path_48" data-name="Path 48" d="M157.366,172.212h-2.581a11.655,11.655,0,0,0-9.25-9.112,11.67,11.67,0,0,0-9.308-9.308,11.67,11.67,0,0,0-9.308-9.308,11.667,11.667,0,0,0-9.361-9.308A9.324,9.324,0,0,0,108.5,128H99.193a9.324,9.324,0,0,0-9.059,7.167,11.667,11.667,0,0,0-9.361,9.308,11.67,11.67,0,0,0-9.308,9.308,11.67,11.67,0,0,0-9.308,9.308,11.656,11.656,0,0,0-9.25,9.122H50.327A2.327,2.327,0,0,0,48,174.539a46.578,46.578,0,0,0,34.9,45.008v10.839h41.885V219.547a46.578,46.578,0,0,0,34.9-45.008A2.327,2.327,0,0,0,157.366,172.212Zm-93.078-4.654h2.327v-2.327A6.981,6.981,0,0,1,73.6,158.25h2.327v-2.327a6.981,6.981,0,0,1,6.981-6.981h2.327v-2.327a6.981,6.981,0,0,1,6.981-6.981h2.327v-2.327a4.654,4.654,0,0,1,4.654-4.654H108.5a4.654,4.654,0,0,1,4.654,4.654v2.327h2.327a6.981,6.981,0,0,1,6.981,6.981v2.327h2.327a6.981,6.981,0,0,1,6.981,6.981v2.327H134.1a6.981,6.981,0,0,1,6.981,6.981v2.327H143.4a6.992,6.992,0,0,1,6.583,4.654H57.706A6.992,6.992,0,0,1,64.289,167.558Zm55.847,58.174H87.558v-4.654h32.577Zm-6.981-9.308H94.539a41.938,41.938,0,0,1-41.822-39.558h102.26A41.938,41.938,0,0,1,113.154,216.424Z" transform="translate(-48 -128)" fill="#ce123e"/>
          </g>
        </g>
        <g id="Group_129" data-name="Group 129" transform="translate(39.248 72.367)">
          <g id="Group_128" data-name="Group 128" transform="translate(0 0)">
            <rect id="Rectangle_34" data-name="Rectangle 34" width="5" height="4" transform="translate(0.13 -0.123)" fill="#ce123e"/>
          </g>
        </g>
        <g id="Group_131" data-name="Group 131" transform="translate(55.72 62.831)">
          <g id="Group_130" data-name="Group 130" transform="translate(0 0)">
            <rect id="Rectangle_35" data-name="Rectangle 35" width="6" height="4" transform="translate(-0.342 0.412)" fill="#ce123e"/>
          </g>
        </g>
        <g id="Group_133" data-name="Group 133" transform="translate(81.728 67.165)">
          <g id="Group_132" data-name="Group 132" transform="translate(0 0)">
            <rect id="Rectangle_36" data-name="Rectangle 36" width="5" height="5" transform="translate(-0.35 0.078)" fill="#ce123e"/>
          </g>
        </g>
        <g id="Group_135" data-name="Group 135" transform="translate(74.792 53.294)">
          <g id="Group_134" data-name="Group 134" transform="translate(0 0)">
            <rect id="Rectangle_37" data-name="Rectangle 37" width="5" height="5" transform="translate(-0.415 -0.051)" fill="#ce123e"/>
          </g>
        </g>
        <g id="Group_137" data-name="Group 137" transform="translate(65.256 46.359)">
          <g id="Group_136" data-name="Group 136" transform="translate(0 0)">
            <rect id="Rectangle_38" data-name="Rectangle 38" width="4" height="5" transform="translate(0.122 -0.115)" fill="#ce123e"/>
          </g>
        </g>
        <g id="Group_139" data-name="Group 139" transform="translate(69.591 72.367)">
          <g id="Group_138" data-name="Group 138" transform="translate(0 0)">
            <rect id="Rectangle_39" data-name="Rectangle 39" width="5" height="4" transform="translate(-0.213 -0.123)" fill="#ce123e"/>
          </g>
        </g>
        <g id="Group_141" data-name="Group 141" transform="translate(97.333 72.367)">
          <g id="Group_140" data-name="Group 140" transform="translate(0 0)">
            <rect id="Rectangle_40" data-name="Rectangle 40" width="5" height="4" transform="translate(0.045 -0.123)" fill="#ce123e"/>
          </g>
        </g>
      </g>
    </g>
    <text id="Kenko_Rice_Bowl" data-name="Kenko Rice Bowl" transform="translate(-5541 18103)" fill="#ce123e" font-size="32" font-family="AvenirNext-DemiBold, Avenir Next" font-weight="300"><tspan x="-123.776" y="0">Kenko Rice Bowl</tspan></text>
  </g>
</svg>
