<svg xmlns="http://www.w3.org/2000/svg" width="169.389" height="187.043" viewBox="0 0 169.389 187.043">
  <g id="Group_203" data-name="Group 203" transform="translate(-1187.479 -432.807)">
    <g id="noun_trash_bag_1925702" data-name="noun_trash bag_1925702" transform="translate(1184.205 431.807)">
      <g id="Group_62" data-name="Group 62" transform="translate(3.274 1)">
        <path id="Path_38" data-name="Path 38" d="M24.5,20.847c6.616-3.5,29.576-1.167,36.581,1.167a17.423,17.423,0,0,1,7.783-1.557H71.2a1.737,1.737,0,0,0,1.557-1.167V18.123a18.437,18.437,0,0,0-4.67-7.394C66.146,8.394,63.811,6.059,60.7,5.67H59.53c-.389,0-.778.389-1.167.778-1.557,1.167-3.5,1.167-5.448.778s-3.5-1.557-5.059-2.335c-1.167-.778-2.335-1.946-3.5-2.724C42.017,1,39.682,1,37.347,1c-1.167,0-2.724,0-3.5,1.167-.389.389-.389,1.557-.778,1.946C32.288,5.67,30.342,5.67,28.786,5.67c-3.113,0-6.227-.389-8.951,1.167C18.667,7.616,17.5,8.783,17.5,9.951a5.531,5.531,0,0,0,.778,2.335A59.4,59.4,0,0,0,24.5,20.847Z" transform="translate(37.864 -1)" fill="#05c793"/>
        <path id="Path_39" data-name="Path 39" d="M155.929,101.516c3.113-31.911,1.167-28.8-31.522-71.606-2.724-3.5-5.448-7.394-8.951-10.118l-3.5-2.335a1.359,1.359,0,0,1-.778-.389,2.973,2.973,0,0,0-1.946-.778,21.643,21.643,0,0,1-3.113,1.557C93.273,23.683,76.15,22.127,68.367,15.9,22.056,40.807,31.785,26.018,9.6,92.955a51.843,51.843,0,0,0-1.946,7.394c-1.557,8.172,1.167,16.734,0,24.907C7.268,128.368-.9,137.319,6.1,138.487c2.335.389,3.892-1.946,5.837-3.113,3.5-2.724,8.562-3.113,12.842-1.946s8.172,3.5,12.453,5.448c20.237,8.562,66.936,7.394,87.951.778,9.34-3.113,19.847-8.172,28.8-3.5a8.16,8.16,0,0,0,4.281,1.557,3.4,3.4,0,0,0,3.5-2.335,5.531,5.531,0,0,0-.778-2.335C154.372,123.7,155.15,112.413,155.929,101.516Z" transform="translate(-3.274 42.085)" fill="#05c793"/>
        <path id="Path_40" data-name="Path 40" d="M30.406,42.4c8.172,2.724,19.847,1.946,27.631-1.557A37.92,37.92,0,0,1,62.318,38.9V14.383c-1.946-.778-4.281-1.946-5.059-3.892C56.48,8.157,33.909,6.6,33.519,6.6c-4.281.389-16.734-1.557-14.01,7,0,0,1.557,2.724,3.113,2.724,0,0-3.892.778-3.5,4.281a3.632,3.632,0,0,0,3.5,3.5s-3.113,1.946-2.335,4.67a3.806,3.806,0,0,0,3.5,3.5C24.179,32.674,17.174,37.733,30.406,42.4Z" transform="translate(42.47 15.193)" fill="#05c793"/>
        <path id="Path_41" data-name="Path 41" d="M87.629,7.5H38.983a1.674,1.674,0,0,0-1.557,1.557v.778h-4.67A1.674,1.674,0,0,0,31.2,11.392V37.076a1.674,1.674,0,0,0,1.557,1.557h4.67v.778a1.674,1.674,0,0,0,1.557,1.557H87.629a4.319,4.319,0,0,0,4.281-4.281V11.781A4.319,4.319,0,0,0,87.629,7.5ZM44.821,18.007a3.069,3.069,0,0,1-3.113-3.113,3.348,3.348,0,0,1,3.113-3.113,3.348,3.348,0,0,1,3.113,3.113A3.069,3.069,0,0,1,44.821,18.007Z" transform="translate(77.479 17.796)" fill="#05c793"/>
      </g>
    </g>
  </g>
</svg>
